<svg width="298" height="160" viewBox="0 0 298 160" fill="none" xmlns="http://www.w3.org/2000/svg">
<path d="M2.408 104.432C1.81067 104.432 1.34133 104.261 1 103.92C0.658667 103.664 0.658667 103.451 1 103.28C2.87733 102.939 4.49867 102.256 5.864 101.232C7.22933 100.123 8.33867 98.7573 9.192 97.136C10.984 94.1493 12.7333 91.1627 14.44 88.176C16.1467 85.104 17.8107 82.032 19.432 78.96L31.72 56.304C33.6827 52.8053 35.3893 49.4347 36.84 46.192C38.376 42.9493 39.5707 40.6027 40.424 39.152C41.0213 38.0427 42.0453 37.0613 43.496 36.208C45.032 35.2693 46.5253 34.544 47.976 34.032C47.464 34.032 46.952 34.032 46.44 34.032C45.928 33.9467 45.3733 33.904 44.776 33.904C42.1307 33.904 39.2293 34.0747 36.072 34.416C33 34.672 29.9707 35.0987 26.984 35.696C24.0827 36.2933 21.5227 37.104 19.304 38.128C17.0853 39.152 15.592 40.3893 14.824 41.84C14.4827 42.608 14.184 43.376 13.928 44.144C13.672 44.912 13.544 45.68 13.544 46.448C13.544 48.4107 14.2267 49.8187 15.592 50.672C15.6773 50.672 15.72 50.7573 15.72 50.928C15.72 51.0987 15.5493 51.2693 15.208 51.44C14.952 51.6107 14.696 51.6533 14.44 51.568C13.672 51.1413 12.7333 50.1173 11.624 48.496C10.5147 46.7893 9.832 45.3813 9.576 44.272C9.32 43.248 9.192 42.3093 9.192 41.456C9.192 39.2373 9.91733 37.5307 11.368 36.336C12.8187 35.056 14.6533 34.16 16.872 33.648C19.0907 33.0507 21.352 32.7093 23.656 32.624C26.0453 32.4533 28.136 32.368 29.928 32.368C32.6587 32.368 35.9013 32.368 39.656 32.368C43.4107 32.2827 46.8667 32.24 50.024 32.24C50.792 32.24 51.6453 32.24 52.584 32.24C53.5227 32.1547 54.504 32.112 55.528 32.112C57.832 32.112 60.2213 32.24 62.696 32.496C65.1707 32.752 67.432 33.3067 69.48 34.16C71.528 35.0133 73.1067 36.336 74.216 38.128C75.3253 40.0053 75.88 42.0533 75.88 44.272C75.88 46.4053 75.4533 48.5387 74.6 50.672C73.7467 52.8053 72.7227 54.64 71.528 56.176C70.76 57.1147 69.864 58.0533 68.84 58.992C67.816 59.9307 66.664 60.8267 65.384 61.68C64.104 62.5333 62.696 63.344 61.16 64.112C59.7093 64.7947 57.96 65.3493 55.912 65.776C55.8267 65.776 55.7413 65.904 55.656 66.16C55.656 66.416 55.7413 66.544 55.912 66.544C56.3387 66.6293 57.064 66.7573 58.088 66.928C59.1973 67.0133 60.1787 67.1413 61.032 67.312C64.0187 67.9093 66.4933 69.1893 68.456 71.152C70.504 73.0293 71.528 75.5893 71.528 78.832C71.528 82.5013 70.5467 85.872 68.584 88.944C66.7067 92.016 64.2747 94.6613 61.288 96.88C58.3013 99.0133 55.1867 100.677 51.944 101.872C47.848 103.408 43.1547 104.176 37.864 104.176C34.7067 104.176 31.4213 103.877 28.008 103.28C24.5947 102.683 21.48 101.659 18.664 100.208C18.0667 99.8667 17.4693 99.6107 16.872 99.44C16.2747 99.184 15.6347 99.056 14.952 99.056C13.7573 99.056 12.4773 99.3973 11.112 100.08C10.2587 100.421 9.14933 101.061 7.784 102C6.41867 102.939 4.88267 103.707 3.176 104.304C3.00533 104.389 2.74933 104.432 2.408 104.432ZM33.768 102.384C35.9867 102.384 38.2053 102.171 40.424 101.744C42.6427 101.232 44.648 100.635 46.44 99.952C49.5973 98.7573 52.4987 97.0933 55.144 94.96C57.7893 92.7413 59.9227 90.1387 61.544 87.152C63.2507 84.08 64.104 80.6667 64.104 76.912C64.104 74.4373 63.464 72.56 62.184 71.28C60.904 69.9147 59.2827 68.976 57.32 68.464C55.3573 67.952 53.3093 67.696 51.176 67.696C49.5547 67.696 48.0187 67.7813 46.568 67.952C45.1173 68.1227 43.7947 68.336 42.6 68.592C40.2107 69.0187 38.0773 69.488 36.2 70C35.8587 69.8293 35.9013 69.5307 36.328 69.104C36.7547 68.592 37.3093 68.0373 37.992 67.44C38.76 66.8427 39.3573 66.3733 39.784 66.032C39.9547 65.8613 40.296 65.6053 40.808 65.264C41.4053 64.8373 41.8747 64.624 42.216 64.624C46.3973 64.624 50.1093 64.368 53.352 63.856C56.68 63.344 59.5387 62.1067 61.928 60.144C64.3173 58.096 66.28 54.9387 67.816 50.672C68.584 48.4533 68.968 46.2773 68.968 44.144C68.968 41.6693 68.3707 39.536 67.176 37.744C65.9813 35.8667 64.0613 34.7573 61.416 34.416C61.0747 34.3307 60.6907 34.288 60.264 34.288C59.8373 34.288 59.4107 34.288 58.984 34.288C57.3627 34.288 55.5707 34.5013 53.608 34.928C51.7307 35.3547 50.3227 36.1653 49.384 37.36C47.2507 40.176 45.2027 43.376 43.24 46.96C41.2773 50.4587 39.4 54.0427 37.608 57.712C35.816 61.296 34.1093 64.6667 32.488 67.824C30.5253 71.664 28.52 75.5467 26.472 79.472C24.424 83.3973 22.4187 87.3653 20.456 91.376C19.944 92.4 19.688 93.3813 19.688 94.32C19.688 96.0267 20.7547 97.6907 22.888 99.312C24.3387 100.421 26.0027 101.232 27.88 101.744C29.8427 102.171 31.8053 102.384 33.768 102.384ZM94.635 102.384C93.7817 102.384 93.0563 102.213 92.459 101.872C91.8617 101.531 91.563 100.891 91.563 99.952C91.563 98.7573 91.8617 97.392 92.459 95.856C93.0563 94.32 93.739 92.8267 94.507 91.376C95.275 89.84 95.9577 88.6027 96.555 87.664C93.5683 90.8213 90.4537 93.808 87.211 96.624C85.5897 97.9893 83.7977 99.2693 81.835 100.464C79.8723 101.659 77.7817 102.256 75.563 102.256C74.7097 102.256 74.1123 102 73.771 101.488C73.4297 100.891 73.259 100.208 73.259 99.44C73.259 99.0133 73.3017 98.7147 73.387 98.544C73.8137 95.216 74.8803 91.76 76.587 88.176C78.2937 84.592 80.3843 81.2213 82.859 78.064C85.3337 74.9067 87.851 72.3467 90.411 70.384C93.3123 68.1653 96.5123 67.056 100.011 67.056H114.731C115.158 67.056 115.371 67.2267 115.371 67.568C115.371 68.2507 114.987 68.592 114.219 68.592C113.366 68.592 112.512 69.1467 111.659 70.256C110.806 71.28 110.166 72.1333 109.739 72.816C109.142 73.7547 108.203 75.3333 106.923 77.552C105.643 79.7707 104.32 82.2027 102.955 84.848C101.675 87.408 100.566 89.7973 99.627 92.016C98.6883 94.2347 98.219 95.856 98.219 96.88C98.219 98.0747 98.8163 98.672 100.011 98.672C101.291 98.672 102.742 98.0747 104.363 96.88C105.984 95.6853 107.606 94.2347 109.227 92.528C110.934 90.736 112.47 88.9867 113.835 87.28C115.286 85.488 116.438 84.08 117.291 83.056C117.803 83.568 117.76 84.2933 117.163 85.232C116.651 86.0853 116.182 86.768 115.755 87.28C114.048 89.4987 112.086 91.8027 109.867 94.192C107.648 96.496 105.216 98.4587 102.571 100.08C100.011 101.616 97.3657 102.384 94.635 102.384ZM80.811 97.904C81.835 97.904 83.243 97.1787 85.035 95.728C86.9123 94.192 88.9177 92.3147 91.051 90.096C93.1843 87.792 95.1897 85.4027 97.067 82.928C98.9443 80.368 100.48 78.064 101.675 76.016C102.955 73.8827 103.595 72.2613 103.595 71.152C103.595 70.2133 103.296 69.5733 102.699 69.232C102.187 68.8907 101.504 68.72 100.651 68.72C99.2857 68.72 97.7923 69.232 96.171 70.256C94.635 71.1947 93.3977 72.1333 92.459 73.072C91.435 74.0107 90.1977 75.504 88.747 77.552C87.3817 79.5147 86.0163 81.6907 84.651 84.08C83.2857 86.4693 82.1337 88.7733 81.195 90.992C80.2563 93.2107 79.787 95.0027 79.787 96.368C79.787 97.392 80.1283 97.904 80.811 97.904ZM132.26 102.384C131.407 102.384 130.681 102.213 130.084 101.872C129.487 101.531 129.188 100.891 129.188 99.952C129.188 98.7573 129.487 97.392 130.084 95.856C130.681 94.32 131.364 92.8267 132.132 91.376C132.9 89.84 133.583 88.6027 134.18 87.664C131.193 90.8213 128.079 93.808 124.836 96.624C123.215 97.9893 121.423 99.2693 119.46 100.464C117.497 101.659 115.407 102.256 113.188 102.256C112.335 102.256 111.737 102 111.396 101.488C111.055 100.891 110.884 100.208 110.884 99.44C110.884 99.0133 110.927 98.7147 111.012 98.544C111.439 95.216 112.505 91.76 114.212 88.176C115.919 84.592 118.009 81.2213 120.484 78.064C122.959 74.9067 125.476 72.3467 128.036 70.384C129.999 68.9333 131.876 68.0373 133.668 67.696C135.46 67.2693 137.423 67.056 139.556 67.056H143.78C145.145 64.752 146.553 62.192 148.004 59.376C149.54 56.4747 151.033 53.616 152.484 50.8C154.02 47.984 155.428 45.5093 156.708 43.376C160.207 37.4027 164.047 32.624 168.228 29.04C172.495 25.456 177.231 23.664 182.436 23.664C183.545 23.664 184.569 24.0053 185.508 24.688C186.447 25.2853 186.873 26.224 186.788 27.504L186.532 32.112C186.532 32.1973 186.447 32.3253 186.276 32.496C186.105 32.5813 185.977 32.624 185.892 32.624C185.807 32.624 185.679 32.5387 185.508 32.368C185.252 30.832 184.484 29.68 183.204 28.912C181.924 28.0587 180.345 27.632 178.468 27.632C177.871 27.632 177.188 27.6747 176.42 27.76C175.737 27.8453 175.055 28.016 174.372 28.272C171.983 29.1253 169.721 30.8747 167.588 33.52C165.455 36.08 163.151 39.4933 160.676 43.76C159.823 45.3813 158.713 47.5147 157.348 50.16C155.983 52.72 154.532 55.4933 152.996 58.48C151.545 61.4667 150.137 64.368 148.772 67.184C147.492 70 146.383 72.3893 145.444 74.352C145.017 75.376 144.292 76.9547 143.268 79.088C142.244 81.136 141.135 83.3973 139.94 85.872C138.831 88.2613 137.849 90.48 136.996 92.528C136.228 94.576 135.844 96.0267 135.844 96.88C135.844 98.0747 136.356 98.672 137.38 98.672C138.404 98.672 139.769 98.0747 141.476 96.88C143.183 95.6 144.932 94.064 146.724 92.272C148.601 90.3947 150.265 88.6027 151.716 86.896C153.252 85.1893 154.319 83.9093 154.916 83.056C155.172 83.312 155.3 83.6107 155.3 83.952C155.3 84.5493 155.044 85.1467 154.532 85.744C154.105 86.3413 153.721 86.8533 153.38 87.28C151.844 89.328 149.924 91.5467 147.62 93.936C145.401 96.24 142.969 98.2453 140.324 99.952C137.679 101.573 134.991 102.384 132.26 102.384ZM118.436 97.904C119.46 97.904 120.868 97.1787 122.66 95.728C124.537 94.192 126.543 92.3147 128.676 90.096C130.809 87.792 132.815 85.4027 134.692 82.928C136.569 80.368 138.105 78.064 139.3 76.016C140.58 73.8827 141.22 72.2613 141.22 71.152C141.22 70.2133 140.921 69.5733 140.324 69.232C139.812 68.8907 139.129 68.72 138.276 68.72C136.911 68.72 135.417 69.232 133.796 70.256C132.26 71.1947 131.023 72.1333 130.084 73.072C129.06 74.0107 127.823 75.504 126.372 77.552C125.007 79.5147 123.641 81.6907 122.276 84.08C120.911 86.4693 119.759 88.7733 118.82 90.992C117.881 93.2107 117.412 95.0027 117.412 96.368C117.412 97.392 117.753 97.904 118.436 97.904ZM153.245 103.92C152.904 103.92 152.904 103.536 153.245 102.768C153.672 102 154.056 101.147 154.397 100.208C154.824 99.2693 155.25 98.2453 155.677 97.136C156.53 95.088 157.469 92.784 158.493 90.224C159.517 87.664 160.498 85.1893 161.437 82.8C162.376 80.3253 163.186 78.2347 163.869 76.528C164.637 74.736 165.149 73.584 165.405 73.072C164.21 74.352 162.76 75.9733 161.053 77.936C159.432 79.8133 157.896 81.648 156.445 83.44C154.994 85.232 153.885 86.64 153.117 87.664C152.861 88.0053 152.648 88.176 152.477 88.176C152.306 88.176 152.221 87.9627 152.221 87.536C152.221 86.8533 152.434 86.2133 152.861 85.616C154.482 83.568 156.274 81.264 158.237 78.704C160.285 76.144 162.12 73.7973 163.741 71.664C165.362 69.4453 166.386 67.9947 166.813 67.312C167.752 67.1413 169.117 66.8853 170.909 66.544C172.786 66.2027 174.066 65.7333 174.749 65.136C175.005 64.88 175.261 64.752 175.517 64.752C175.688 64.752 175.773 64.9227 175.773 65.264C175.858 65.52 175.773 65.8187 175.517 66.16C175.005 66.7573 174.109 68.1653 172.829 70.384C171.634 72.5173 170.312 74.9067 168.861 77.552C167.496 80.1973 166.216 82.5867 165.021 84.72C166.386 83.0987 167.709 81.5627 168.989 80.112C170.354 78.6613 171.293 77.6373 171.805 77.04C172.829 76.016 174.237 74.736 176.029 73.2C177.821 71.664 179.698 70.256 181.661 68.976C183.624 67.696 185.33 66.9707 186.781 66.8C187.122 66.7147 187.421 66.672 187.677 66.672C187.933 66.672 188.189 66.672 188.445 66.672C190.066 66.672 190.877 67.2693 190.877 68.464C190.877 68.976 190.749 69.5733 190.493 70.256C190.237 70.9387 189.896 71.6213 189.469 72.304C188.957 73.328 188.104 74.9493 186.909 77.168C185.714 79.3013 184.648 81.264 183.709 83.056L189.725 77.04C190.749 76.016 192.157 74.736 193.949 73.2C195.741 71.664 197.618 70.256 199.581 68.976C201.544 67.696 203.25 66.9707 204.701 66.8C205.042 66.7147 205.341 66.672 205.597 66.672C205.938 66.672 206.194 66.672 206.365 66.672C208.242 66.672 209.181 67.3547 209.181 68.72C209.181 69.744 208.626 71.1093 207.517 72.816C206.92 73.7547 205.981 75.3333 204.701 77.552C203.421 79.7707 202.098 82.2027 200.733 84.848C199.453 87.408 198.344 89.7973 197.405 92.016C196.466 94.2347 195.997 95.856 195.997 96.88C195.997 98.0747 196.594 98.672 197.789 98.672C198.898 98.672 200.306 98.032 202.013 96.752C203.805 95.3867 205.597 93.7653 207.389 91.888C209.266 90.0107 210.888 88.2187 212.253 86.512C212.85 85.8293 213.405 85.1467 213.917 84.464C214.514 83.696 214.856 83.2693 214.941 83.184C215.112 83.3547 215.197 83.6533 215.197 84.08C215.197 84.6773 214.984 85.2747 214.557 85.872C214.216 86.384 213.874 86.8533 213.533 87.28C211.912 89.4133 210.034 91.632 207.901 93.936C205.853 96.24 203.592 98.2027 201.117 99.824C198.642 101.36 195.997 102.256 193.181 102.512C192.328 102.597 191.474 102.427 190.621 102C189.768 101.573 189.341 100.891 189.341 99.952C189.341 98.7573 189.64 97.3493 190.237 95.728C190.92 94.1067 191.645 92.4853 192.413 90.864C193.266 89.2427 193.906 87.92 194.333 86.896C195.869 83.9093 197.277 81.0933 198.557 78.448C199.837 75.8027 200.733 73.9253 201.245 72.816C201.501 72.304 201.629 71.8773 201.629 71.536C201.629 70.9387 201.16 70.896 200.221 71.408C199.282 71.92 198.13 72.688 196.765 73.712C195.485 74.736 194.29 75.76 193.181 76.784C192.072 77.7227 191.346 78.3627 191.005 78.704C189.554 80.1547 187.805 82.1173 185.757 84.592C183.794 87.0667 181.96 89.6693 180.253 92.4C178.546 95.0453 177.352 97.52 176.669 99.824C175.816 100.592 175.005 100.976 174.237 100.976C173.64 100.976 173.128 100.763 172.701 100.336C172.36 99.9093 172.189 99.3973 172.189 98.8C172.189 97.0933 172.701 95.088 173.725 92.784C174.834 90.3947 175.73 88.432 176.413 86.896C177.949 83.9093 179.357 81.0933 180.637 78.448C181.917 75.8027 182.813 73.9253 183.325 72.816C183.581 72.304 183.709 71.8773 183.709 71.536C183.709 70.9387 183.24 70.896 182.301 71.408C181.362 71.92 180.21 72.688 178.845 73.712C177.565 74.736 176.37 75.76 175.261 76.784C174.152 77.7227 173.426 78.3627 173.085 78.704C171.037 80.8373 169.117 83.0133 167.325 85.232C165.618 87.4507 164.168 89.84 162.973 92.4C162.29 93.936 161.565 95.6427 160.797 97.52C160.029 99.3973 159.389 100.976 158.877 102.256C157.768 102.341 156.658 102.64 155.549 103.152C154.44 103.664 153.672 103.92 153.245 103.92ZM219.77 102.384C218.917 102.384 218.191 102.213 217.594 101.872C216.997 101.531 216.698 100.891 216.698 99.952C216.698 98.7573 216.997 97.3493 217.594 95.728C218.277 94.1067 219.002 92.4853 219.77 90.864C220.538 89.2427 221.178 87.92 221.69 86.896C222.714 84.9333 223.695 82.9707 224.634 81.008C225.573 79.0453 226.383 77.3813 227.066 76.016C227.749 74.736 228.09 73.8827 228.09 73.456C228.09 72.7733 227.578 72.7733 226.554 73.456C225.615 74.1387 224.719 74.8213 223.866 75.504C221.989 77.296 220.026 79.4293 217.978 81.904C215.93 84.2933 214.351 86.2133 213.242 87.664C212.986 88.0053 212.773 88.176 212.602 88.176C212.431 88.176 212.346 87.9627 212.346 87.536C212.346 86.8533 212.559 86.2133 212.986 85.616C214.181 83.9093 215.589 82.032 217.21 79.984C218.831 77.936 220.495 75.9733 222.202 74.096C223.823 72.3893 225.487 70.7253 227.194 69.104C228.901 67.4827 231.077 66.672 233.722 66.672C235.514 66.672 236.41 67.3547 236.41 68.72C236.41 69.9147 235.898 71.28 234.874 72.816C234.277 73.7547 233.338 75.3333 232.058 77.552C230.778 79.7707 229.455 82.2027 228.09 84.848C226.81 87.408 225.701 89.7973 224.762 92.016C223.823 94.2347 223.354 95.856 223.354 96.88C223.354 98.0747 223.951 98.672 225.146 98.672C226.085 98.672 227.237 98.2027 228.602 97.264C229.967 96.24 231.375 95.0453 232.826 93.68C235.471 91.12 237.861 88.3467 239.994 85.36C242.213 82.288 244.09 79.344 245.626 76.528C247.247 73.712 248.527 71.408 249.466 69.616C249.637 69.2747 249.807 68.8907 249.978 68.464C250.234 67.952 250.618 67.6533 251.13 67.568C251.642 67.4827 252.751 67.44 254.458 67.44C256.165 67.44 257.743 67.0987 259.194 66.416H259.45C259.706 66.416 259.834 66.544 259.834 66.8C259.834 67.4827 259.279 67.9947 258.17 68.336C257.146 68.6773 255.951 69.7013 254.586 71.408C253.306 73.1147 252.026 75.2053 250.746 77.68C249.466 80.0693 248.314 82.544 247.29 85.104C246.266 87.664 245.498 90.0107 244.986 92.144C244.474 94.2773 244.346 95.856 244.602 96.88C244.943 98.0747 245.541 98.672 246.394 98.672C247.503 98.672 249.039 97.9893 251.002 96.624C253.05 95.2587 255.141 93.6373 257.274 91.76C259.407 89.7973 261.157 88.0053 262.522 86.384C263.119 85.7013 263.674 85.0187 264.186 84.336C264.698 83.6533 265.039 83.2267 265.21 83.056C265.295 83.1413 265.381 83.312 265.466 83.568C265.551 83.7387 265.594 83.9093 265.594 84.08C265.509 84.6773 265.295 85.2747 264.954 85.872C264.613 86.384 264.229 86.8533 263.802 87.28C262.181 89.4133 260.218 91.6747 257.914 94.064C255.695 96.368 253.263 98.3307 250.618 99.952C248.058 101.573 245.413 102.384 242.682 102.384C241.829 102.384 240.847 102.171 239.738 101.744C238.714 101.317 238.202 100.379 238.202 98.928C238.202 97.8187 238.501 96.3253 239.098 94.448C239.695 92.4853 240.335 90.5653 241.018 88.688C241.786 86.7253 242.426 85.2747 242.938 84.336C241.829 85.9573 240.463 87.792 238.842 89.84C237.306 91.8027 235.727 93.552 234.106 95.088C231.973 97.136 229.669 98.8853 227.194 100.336C224.805 101.701 222.33 102.384 219.77 102.384ZM270.532 104.048C268.996 104.048 267.375 103.835 265.668 103.408C263.961 102.981 262.425 102.299 261.06 101.36C259.78 100.336 258.927 98.9707 258.5 97.264C258.415 97.008 258.372 96.624 258.372 96.112C258.372 94.9173 258.628 93.5947 259.14 92.144C259.737 90.6933 260.463 89.6693 261.316 89.072C261.657 88.9013 261.913 88.9013 262.084 89.072C262.34 89.2427 262.383 89.4133 262.212 89.584C262.127 89.84 261.999 90.1813 261.828 90.608C261.657 90.9493 261.529 91.3333 261.444 91.76C261.188 93.9787 261.657 95.9413 262.852 97.648C263.364 98.3307 263.961 98.9707 264.644 99.568C265.412 100.165 266.137 100.677 266.82 101.104C267.417 101.445 268.143 101.701 268.996 101.872C269.849 101.957 270.703 102 271.556 102C272.921 102 274.244 101.829 275.524 101.488C276.804 101.147 277.743 100.592 278.34 99.824C279.449 98.4587 280.004 96.9227 280.004 95.216C280.004 93.936 279.663 92.5707 278.98 91.12C278.297 89.6693 277.231 88.1333 275.78 86.512C274.841 85.488 273.945 84.3787 273.092 83.184C272.239 81.9893 271.684 80.7093 271.428 79.344C271.343 79.088 271.257 78.832 271.172 78.576C271.172 78.32 271.172 78.064 271.172 77.808C270.063 79.4293 268.911 80.9653 267.716 82.416C266.607 83.7813 265.625 84.976 264.772 86C264.431 86.512 264.132 86.768 263.876 86.768C263.705 86.768 263.62 86.5973 263.62 86.256C263.62 85.488 263.961 84.6773 264.644 83.824C265.327 83.056 266.095 82.1173 266.948 81.008C267.801 79.8133 268.484 78.8747 268.996 78.192C270.447 76.0587 271.513 74.3947 272.196 73.2C272.964 71.92 273.775 70.768 274.628 69.744C275.567 68.6347 276.719 67.7387 278.084 67.056C279.535 66.3733 281.028 66.032 282.564 66.032C284.356 66.032 285.977 66.3307 287.428 66.928C288.964 67.44 289.775 68.8053 289.86 71.024C289.86 72.048 289.647 73.1147 289.22 74.224C288.879 75.248 288.495 76.2293 288.068 77.168C287.812 77.68 287.428 78.064 286.916 78.32C286.489 78.4907 286.276 78.4053 286.276 78.064C286.276 77.7227 286.319 77.3387 286.404 76.912C286.489 76.4853 286.532 76.1013 286.532 75.76C286.532 74.3093 286.276 73.0293 285.764 71.92C285.337 70.7253 284.697 69.872 283.844 69.36C282.991 68.7627 282.095 68.464 281.156 68.464C279.791 68.464 278.468 69.0187 277.188 70.128C275.908 71.152 275.268 72.5173 275.268 74.224C275.268 74.3947 275.268 74.608 275.268 74.864C275.268 75.12 275.311 75.3333 275.396 75.504C275.737 76.8693 276.761 78.4053 278.468 80.112C280.175 81.8187 281.497 83.312 282.436 84.592C284.057 86.8107 284.868 89.072 284.868 91.376C284.868 93.68 284.185 95.8133 282.82 97.776C281.54 99.6533 279.791 101.147 277.572 102.256C275.439 103.451 273.092 104.048 270.532 104.048Z" fill="#FFC551"/>
<path d="M170.568 56.6C169.245 56.6 168.157 56.216 167.304 55.448C166.493 54.68 166.173 53.528 166.344 51.992C166.387 51.4373 166.515 50.8613 166.728 50.264C166.984 49.624 167.261 49.0053 167.56 48.408C167.816 47.8107 168.072 47.512 168.328 47.512C168.541 47.512 168.563 47.6827 168.392 48.024C167.837 49.176 167.56 50.2 167.56 51.096C167.56 52.0347 167.88 52.7387 168.52 53.208C169.203 53.6773 170.077 53.912 171.144 53.912C173.235 53.912 175.539 53.2507 178.056 51.928C180.573 50.5627 183.176 48.8347 185.864 46.744C188.552 44.6107 191.133 42.392 193.608 40.088C191.944 40.0027 190.387 39.9173 188.936 39.832C187.485 39.7467 186.205 39.704 185.096 39.704C184.157 39.704 183.027 39.7893 181.704 39.96C180.381 40.1307 179.357 40.5787 178.632 41.304C178.333 41.6027 178.056 42.0507 177.8 42.648C177.587 43.2027 177.48 43.7787 177.48 44.376C177.48 44.5467 177.48 44.7173 177.48 44.888C177.523 45.016 177.565 45.1653 177.608 45.336C177.437 45.2507 177.117 45.1867 176.648 45.144C176.221 45.0587 175.944 44.7813 175.816 44.312C175.773 44.184 175.752 43.9707 175.752 43.672C175.752 42.9893 176.008 42.4347 176.52 42.008C177.032 41.5387 177.651 41.1333 178.376 40.792C179.101 40.4507 179.763 40.152 180.36 39.896C181.768 39.2987 183.219 38.808 184.712 38.424C186.205 38.04 187.72 37.848 189.256 37.848C191.005 37.848 193.181 37.912 195.784 38.04C197.789 36.0773 199.645 34.2213 201.352 32.472C203.059 30.7227 204.445 29.272 205.512 28.12C207.005 26.5413 208.584 25.1973 210.248 24.088C211.955 22.936 213.683 22.1253 215.432 21.656H211.912C210.419 21.656 208.797 21.72 207.048 21.848C205.299 21.976 203.656 22.2533 202.12 22.68C200.584 23.1067 199.304 23.7467 198.28 24.6C197.64 25.1547 197.149 25.7947 196.808 26.52C196.509 27.2027 196.36 27.8427 196.36 28.44C196.36 29.2507 196.595 29.8053 197.064 30.104C197.107 30.104 197.128 30.1253 197.128 30.168C197.128 30.296 196.979 30.4453 196.68 30.616C196.381 30.744 196.168 30.7653 196.04 30.68C195.613 30.3813 195.229 29.784 194.888 28.888C194.589 27.9493 194.483 27.2027 194.568 26.648C194.781 25.3253 195.357 24.2587 196.296 23.448C197.277 22.5947 198.472 21.9333 199.88 21.464C201.331 20.9947 202.845 20.6747 204.424 20.504C206.045 20.3333 207.581 20.2267 209.032 20.184C210.525 20.1413 211.784 20.12 212.808 20.12H219.784C219.869 20.12 219.891 20.1413 219.848 20.184C220.915 19.7147 222.024 19.2453 223.176 18.776C224.371 18.3067 225.395 18.072 226.248 18.072C226.461 18.072 226.675 18.136 226.888 18.264C227.144 18.392 227.272 18.52 227.272 18.648C227.272 18.8613 226.845 18.968 225.992 18.968C225.565 18.968 225.117 19.0533 224.648 19.224C224.221 19.352 223.645 19.8 222.92 20.568C222.323 21.1653 221.576 22.1253 220.68 23.448C219.784 24.7707 218.803 26.328 217.736 28.12C216.669 29.8693 215.603 31.7467 214.536 33.752C213.469 35.7147 212.445 37.656 211.464 39.576C210.483 41.496 209.629 43.2667 208.904 44.888C208.819 45.144 208.584 45.7413 208.2 46.68C207.816 47.576 207.453 48.5787 207.112 49.688C206.771 50.7547 206.6 51.7147 206.6 52.568C206.6 53.72 207.005 54.296 207.816 54.296C208.2 54.296 208.584 54.2107 208.968 54.04C209.523 53.8267 210.099 53.5067 210.696 53.08C211.293 52.6533 211.869 52.1627 212.424 51.608C213.533 50.5413 214.472 49.5173 215.24 48.536C216.008 47.512 216.477 46.8933 216.648 46.68C216.776 46.4667 216.925 46.36 217.096 46.36C217.267 46.36 217.352 46.4667 217.352 46.68C217.352 46.808 217.288 46.9787 217.16 47.192C216.861 47.6187 216.307 48.3653 215.496 49.432C214.685 50.456 213.725 51.5013 212.616 52.568C211.549 53.6347 210.397 54.4453 209.16 55C208.776 55.1707 208.371 55.2987 207.944 55.384C207.517 55.512 207.091 55.576 206.664 55.576C205.811 55.576 205.021 55.2773 204.296 54.68C203.613 54.0827 203.272 53.1013 203.272 51.736C203.272 50.4987 203.507 49.176 203.976 47.768C204.488 46.3173 204.957 45.144 205.384 44.248C206.237 42.4133 207.24 40.3653 208.392 38.104C209.587 35.8427 210.803 33.5813 212.04 31.32C213.32 29.0587 214.493 27.0107 215.56 25.176C216.627 23.3413 217.501 21.976 218.184 21.08C217.501 21.08 216.584 21.3573 215.432 21.912C214.28 22.424 213.043 23.128 211.72 24.024C210.44 24.8773 209.245 25.88 208.136 27.032C206.813 28.3973 205.277 30.0613 203.528 32.024C201.821 33.9867 199.965 36.0347 197.96 38.168C198.941 38.2107 199.923 38.2533 200.904 38.296C201.885 38.296 202.867 38.296 203.848 38.296C204.531 38.296 205.277 38.232 206.088 38.104C206.941 37.9333 207.731 37.6773 208.456 37.336C208.456 37.336 208.328 37.5707 208.072 38.04C207.859 38.4667 207.475 38.9147 206.92 39.384C206.408 39.8107 205.704 40.0667 204.808 40.152C203.997 40.1947 203.187 40.2373 202.376 40.28C201.565 40.28 200.755 40.28 199.944 40.28C199.261 40.28 198.579 40.28 197.896 40.28C197.256 40.28 196.616 40.2587 195.976 40.216C194.013 42.264 191.965 44.2693 189.832 46.232C187.699 48.152 185.544 49.9013 183.368 51.48C181.192 53.0587 179.016 54.296 176.84 55.192C174.707 56.1307 172.616 56.6 170.568 56.6ZM227.757 55.32C226.69 55.32 225.88 54.9573 225.325 54.232C224.984 53.72 224.642 52.952 224.301 51.928C223.96 50.904 223.661 49.8373 223.405 48.728C223.149 47.6187 222.936 46.7227 222.765 46.04C221.57 47.576 220.504 49.112 219.565 50.648C218.669 52.184 218.072 53.3787 217.773 54.232C217.688 54.488 217.389 54.7013 216.877 54.872C216.408 55.0427 215.938 55.128 215.469 55.128C214.786 55.128 214.53 54.9147 214.701 54.488C216.024 51.544 217.282 48.7067 218.477 45.976C219.672 43.2453 220.93 40.4933 222.253 37.72C223.618 34.9467 225.154 32.0667 226.861 29.08C228.056 26.904 229.485 24.8133 231.149 22.808C232.856 20.76 234.669 19.096 236.589 17.816C238.509 16.4933 240.45 15.832 242.413 15.832C243.053 15.832 243.65 16.0027 244.205 16.344C244.76 16.6853 245.037 17.2187 245.037 17.944V19.8C245.037 19.9707 244.909 20.056 244.653 20.056C244.525 20.056 244.461 20.0133 244.461 19.928C244.461 19.2453 244.162 18.7973 243.565 18.584C242.968 18.328 242.392 18.2 241.837 18.2C240.344 18.2 238.829 18.4987 237.293 19.096C235.586 19.7787 234.157 20.8027 233.005 22.168C231.853 23.5333 230.786 24.984 229.805 26.52C228.525 28.4827 227.266 30.7867 226.029 33.432C224.792 36.0347 223.64 38.6587 222.573 41.304C221.549 43.9493 220.632 46.3387 219.821 48.472C220.29 47.8747 220.76 47.2773 221.229 46.68C221.698 46.0827 222.146 45.528 222.573 45.016C222.573 44.9307 222.552 44.8453 222.509 44.76C222.509 44.6747 222.509 44.5893 222.509 44.504C222.509 44.2053 222.573 43.9493 222.701 43.736C222.829 43.5227 223 43.2667 223.213 42.968C223.512 42.5413 223.789 42.2213 224.045 42.008C224.301 41.752 224.578 41.432 224.877 41.048L225.069 42.136C226.946 40.216 228.589 38.8293 229.997 37.976C230.978 37.3787 231.938 37.08 232.877 37.08C233.816 37.08 234.285 37.4427 234.285 38.168C234.285 38.7653 233.986 39.512 233.389 40.408C233.176 40.7067 233.048 40.92 233.005 41.048C232.962 41.176 232.877 41.304 232.749 41.432C232.706 41.4747 232.621 41.4747 232.493 41.432C232.365 41.3893 232.301 41.3253 232.301 41.24C232.301 40.728 232.13 40.408 231.789 40.28C231.448 40.1093 231.064 40.024 230.637 40.024C229.826 40.024 228.952 40.3227 228.013 40.92C227.117 41.4747 226.2 42.2427 225.261 43.224C225.474 44.2907 225.709 45.464 225.965 46.744C226.264 47.9813 226.584 49.1333 226.925 50.2C227.266 51.2667 227.586 52.056 227.885 52.568C228.098 52.9093 228.397 53.144 228.781 53.272C229.165 53.3573 229.485 53.4 229.741 53.4C230.338 53.4 231.021 53.1013 231.789 52.504C232.6 51.864 233.41 51.1173 234.221 50.264C235.074 49.368 235.842 48.4933 236.525 47.64C237.25 46.7867 237.805 46.104 238.189 45.592C238.36 45.8053 238.402 46.0187 238.317 46.232C238.274 46.488 238.146 46.7653 237.933 47.064C237.762 47.32 237.592 47.5547 237.421 47.768C236.568 48.8347 235.65 49.9227 234.669 51.032C233.688 52.0987 232.642 53.0587 231.533 53.912C231.064 54.296 230.488 54.6373 229.805 54.936C229.122 55.192 228.44 55.32 227.757 55.32ZM239.739 55.576C239.184 55.576 238.523 55.4693 237.755 55.256C236.987 55.0853 236.603 54.616 236.603 53.848C236.603 53.5493 236.667 53.208 236.795 52.824C236.923 52.44 237.051 52.0987 237.179 51.8C237.606 50.6907 238.054 49.56 238.523 48.408C238.992 47.256 239.483 46.0827 239.995 44.888C239.44 45.528 238.907 46.1253 238.395 46.68C237.926 47.192 237.584 47.576 237.371 47.832C237.243 48.0027 237.136 48.088 237.051 48.088C236.966 48.088 236.923 47.9813 236.923 47.768C236.923 47.4267 237.03 47.1067 237.243 46.808C237.84 46.04 238.523 45.2293 239.291 44.376C240.059 43.5227 240.806 42.6267 241.531 41.688C243.323 37.9333 245.328 34.3067 247.547 30.808C249.766 27.2667 252.262 24.1307 255.035 21.4C255.888 20.5893 256.848 19.7573 257.915 18.904C258.982 18.0507 260.112 17.3253 261.307 16.728C262.544 16.1307 263.76 15.832 264.955 15.832C265.595 15.832 266.171 16.0027 266.683 16.344C267.238 16.6853 267.536 17.2187 267.579 17.944V19.8C267.579 19.9707 267.451 20.056 267.195 20.056C267.067 20.056 267.003 20.0133 267.003 19.928C267.003 19.2453 266.704 18.7973 266.107 18.584C265.51 18.328 264.912 18.2 264.315 18.2C261.968 18.2 259.856 18.8187 257.979 20.056C256.102 21.2507 254.438 22.8293 252.987 24.792C251.536 26.712 250.235 28.8453 249.083 31.192C247.931 33.496 246.886 35.7787 245.947 38.04C245.051 40.2587 244.198 42.2427 243.387 43.992C243.387 43.992 243.387 44.0347 243.387 44.12C243.387 44.2053 243.408 44.248 243.451 44.248C243.494 44.248 243.835 43.928 244.475 43.288C245.158 42.6053 245.99 41.816 246.971 40.92C247.995 40.024 249.062 39.256 250.171 38.616C251.28 37.9333 252.304 37.592 253.243 37.592C253.712 37.592 254.011 37.7627 254.139 38.104C254.267 38.4027 254.331 38.744 254.331 39.128V39.704C254.118 41.2827 253.563 42.9893 252.667 44.824C251.814 46.6587 250.704 48.408 249.339 50.072C248.016 51.6933 246.523 53.016 244.859 54.04C243.238 55.064 241.531 55.576 239.739 55.576ZM240.763 54.488C241.446 54.488 242.171 54.232 242.939 53.72C243.75 53.1653 244.368 52.6747 244.795 52.248C245.307 51.7787 245.926 51.0533 246.651 50.072C247.376 49.048 248.08 47.9387 248.763 46.744C249.446 45.5493 250.022 44.3973 250.491 43.288C250.96 42.1787 251.195 41.2827 251.195 40.6C251.195 40.3867 251.152 40.1947 251.067 40.024C250.982 39.8533 250.832 39.768 250.619 39.768C250.235 39.768 249.723 40.0027 249.083 40.472C248.486 40.9413 247.824 41.5173 247.099 42.2C246.416 42.84 245.776 43.48 245.179 44.12C244.624 44.7173 244.219 45.1653 243.963 45.464C243.494 45.976 242.896 46.7227 242.171 47.704C241.446 48.6853 240.784 49.688 240.187 50.712C239.632 51.6933 239.355 52.5253 239.355 53.208C239.355 54.0613 239.824 54.488 240.763 54.488ZM262.943 55.192C262.516 55.192 262.153 55.1067 261.855 54.936C261.556 54.7653 261.407 54.4453 261.407 53.976C261.407 53.3787 261.556 52.696 261.855 51.928C262.153 51.16 262.495 50.4133 262.879 49.688C263.263 48.92 263.604 48.3013 263.903 47.832C262.409 49.4107 260.852 50.904 259.231 52.312C258.42 52.9947 257.524 53.6347 256.543 54.232C255.561 54.8293 254.516 55.128 253.407 55.128C252.98 55.128 252.681 55 252.511 54.744C252.34 54.4453 252.255 54.104 252.255 53.72C252.255 53.5067 252.276 53.3573 252.319 53.272C252.532 51.608 253.065 49.88 253.919 48.088C254.772 46.296 255.817 44.6107 257.055 43.032C258.292 41.4533 259.551 40.1733 260.831 39.192C262.281 38.0827 263.881 37.528 265.631 37.528H272.991C273.204 37.528 273.311 37.6133 273.311 37.784C273.311 38.1253 273.119 38.296 272.735 38.296C272.308 38.296 271.881 38.5733 271.455 39.128C271.028 39.64 270.708 40.0667 270.495 40.408C270.196 40.8773 269.727 41.6667 269.087 42.776C268.447 43.8853 267.785 45.1013 267.103 46.424C266.463 47.704 265.908 48.8987 265.439 50.008C264.969 51.1173 264.735 51.928 264.735 52.44C264.735 53.0373 265.033 53.336 265.631 53.336C266.271 53.336 266.996 53.0373 267.807 52.44C268.617 51.8427 269.428 51.1173 270.239 50.264C271.092 49.368 271.86 48.4933 272.543 47.64C273.268 46.744 273.844 46.04 274.271 45.528C274.527 45.784 274.505 46.1467 274.207 46.616C273.951 47.0427 273.716 47.384 273.503 47.64C272.649 48.7493 271.668 49.9013 270.559 51.096C269.449 52.248 268.233 53.2293 266.911 54.04C265.631 54.808 264.308 55.192 262.943 55.192ZM256.031 52.952C256.543 52.952 257.247 52.5893 258.143 51.864C259.081 51.096 260.084 50.1573 261.151 49.048C262.217 47.896 263.22 46.7013 264.159 45.464C265.097 44.184 265.865 43.032 266.463 42.008C267.103 40.9413 267.423 40.1307 267.423 39.576C267.423 39.1067 267.273 38.7867 266.975 38.616C266.719 38.4453 266.377 38.36 265.951 38.36C265.268 38.36 264.521 38.616 263.711 39.128C262.943 39.5973 262.324 40.0667 261.855 40.536C261.343 41.0053 260.724 41.752 259.999 42.776C259.316 43.7573 258.633 44.8453 257.951 46.04C257.268 47.2347 256.692 48.3867 256.223 49.496C255.753 50.6053 255.519 51.5013 255.519 52.184C255.519 52.696 255.689 52.952 256.031 52.952ZM273.435 55.896C273.264 55.896 273.264 55.7253 273.435 55.384C273.648 55 273.84 54.5733 274.011 54.104C274.224 53.6347 274.438 53.1227 274.651 52.568C275.078 51.544 275.547 50.392 276.059 49.112C276.571 47.832 277.062 46.5947 277.531 45.4C278 44.1627 278.406 43.1173 278.747 42.264C279.131 41.368 279.387 40.792 279.515 40.536C278.918 41.176 278.192 41.9867 277.339 42.968C276.528 43.9067 275.76 44.824 275.035 45.72C274.31 46.616 273.755 47.32 273.371 47.832C273.243 48.0027 273.136 48.088 273.051 48.088C272.966 48.088 272.923 47.9813 272.923 47.768C272.923 47.4267 273.03 47.1067 273.243 46.808C274.054 45.784 274.95 44.632 275.931 43.352C276.955 42.072 277.872 40.8987 278.683 39.832C279.494 38.7227 280.006 37.9973 280.219 37.656C280.688 37.5707 281.371 37.4427 282.267 37.272C283.206 37.1013 283.846 36.8667 284.187 36.568C284.315 36.44 284.443 36.376 284.571 36.376C284.656 36.376 284.699 36.4613 284.699 36.632C284.742 36.76 284.699 36.9093 284.571 37.08C284.315 37.336 283.931 37.8907 283.419 38.744C282.95 39.5973 282.416 40.5787 281.819 41.688C281.222 42.7973 280.646 43.864 280.091 44.888C280.518 44.248 281.072 43.5013 281.755 42.648C282.48 41.752 283.27 40.8987 284.123 40.088C284.976 39.2347 285.83 38.5307 286.683 37.976C287.579 37.4213 288.411 37.144 289.179 37.144C289.734 37.144 290.203 37.272 290.587 37.528C290.971 37.7413 291.27 38.1467 291.483 38.744C291.611 39.0427 291.675 39.384 291.675 39.768C291.675 40.4933 291.483 41.1973 291.099 41.88C290.758 42.52 290.502 43.0107 290.331 43.352C290.288 43.48 290.139 43.608 289.883 43.736C289.627 43.8213 289.52 43.7787 289.563 43.608C289.606 43.3947 289.627 43.1813 289.627 42.968C289.67 42.7547 289.691 42.52 289.691 42.264C289.691 41.5387 289.542 40.8773 289.243 40.28C288.987 39.6827 288.496 39.384 287.771 39.384C287.088 39.384 286.256 39.8107 285.275 40.664C284.294 41.5173 283.312 42.4987 282.331 43.608C281.094 45.0587 280.112 46.4453 279.387 47.768C278.662 49.048 278.064 50.3067 277.595 51.544C277.339 52.2267 277.083 52.9093 276.827 53.592C276.571 54.232 276.379 54.744 276.251 55.128C275.696 55.1707 275.142 55.2987 274.587 55.512C274.032 55.768 273.648 55.896 273.435 55.896Z" fill="#FF6464"/>
</svg>
